<svg width="276" height="49" viewBox="0 0 276 49" fill="none" xmlns="http://www.w3.org/2000/svg">
<path d="M9.81818 1.45454L21.9318 38.0909H22.4091L34.5 1.45454H43.7727L27.3636 48H16.9545L0.568182 1.45454H9.81818ZM58.3352 1.45454V48H49.9034V1.45454H58.3352ZM83.2386 48H67.4659V1.45454H83.5568C88.178 1.45454 92.1477 2.38636 95.4659 4.25C98.7992 6.09848 101.36 8.75757 103.148 12.2273C104.936 15.697 105.83 19.8485 105.83 24.6818C105.83 29.5303 104.928 33.697 103.125 37.1818C101.337 40.6667 98.7538 43.3409 95.375 45.2045C92.0114 47.0682 87.9659 48 83.2386 48ZM75.8977 40.7045H82.8295C86.072 40.7045 88.7765 40.1136 90.9432 38.9318C93.1098 37.7348 94.7386 35.9545 95.8295 33.5909C96.9205 31.2121 97.4659 28.2424 97.4659 24.6818C97.4659 21.1212 96.9205 18.1667 95.8295 15.8182C94.7386 13.4545 93.125 11.6894 90.9886 10.5227C88.8674 9.34091 86.2311 8.75 83.0795 8.75H75.8977V40.7045ZM113.841 48V1.45454H144.114V8.52273H122.273V21.1591H142.545V28.2273H122.273V40.9318H144.295V48H113.841ZM194.307 24.7273C194.307 29.7424 193.367 34.0379 191.489 37.6136C189.625 41.1742 187.08 43.9015 183.852 45.7955C180.64 47.6894 176.996 48.6364 172.92 48.6364C168.845 48.6364 165.193 47.6894 161.966 45.7955C158.754 43.8864 156.208 41.1515 154.33 37.5909C152.466 34.0152 151.534 29.7273 151.534 24.7273C151.534 19.7121 152.466 15.4242 154.33 11.8636C156.208 8.28788 158.754 5.55303 161.966 3.65909C165.193 1.76515 168.845 0.81818 172.92 0.81818C176.996 0.81818 180.64 1.76515 183.852 3.65909C187.08 5.55303 189.625 8.28788 191.489 11.8636C193.367 15.4242 194.307 19.7121 194.307 24.7273ZM185.83 24.7273C185.83 21.197 185.277 18.2197 184.17 15.7955C183.08 13.3561 181.564 11.5152 179.625 10.2727C177.686 9.01515 175.451 8.38636 172.92 8.38636C170.39 8.38636 168.155 9.01515 166.216 10.2727C164.277 11.5152 162.754 13.3561 161.648 15.7955C160.557 18.2197 160.011 21.197 160.011 24.7273C160.011 28.2576 160.557 31.2424 161.648 33.6818C162.754 36.1061 164.277 37.947 166.216 39.2045C168.155 40.447 170.39 41.0682 172.92 41.0682C175.451 41.0682 177.686 40.447 179.625 39.2045C181.564 37.947 183.08 36.1061 184.17 33.6818C185.277 31.2424 185.83 28.2576 185.83 24.7273Z" fill="white"/>
<path d="M206.983 48.5C205.604 48.5 204.422 48.0152 203.438 47.0455C202.453 46.0758 201.968 44.8939 201.983 43.5C201.968 42.1364 202.453 40.9697 203.438 40C204.422 39.0303 205.604 38.5455 206.983 38.5455C208.316 38.5455 209.475 39.0303 210.46 40C211.46 40.9697 211.968 42.1364 211.983 43.5C211.968 44.4242 211.725 45.2652 211.256 46.0227C210.801 46.7803 210.195 47.3864 209.438 47.8409C208.695 48.2803 207.877 48.5 206.983 48.5ZM226.818 48H217.818L234.205 1.45454H244.614L261.023 48H252.023L239.591 11H239.227L226.818 48ZM227.114 29.75H251.659V36.5227H227.114V29.75ZM275.585 1.45454V48H267.153V1.45454H275.585Z" fill="#3B82F6"/>
</svg>
